<?xml version="1.0" encoding="UTF-8" standalone="no"?>
<svg
   xmlns:dc="http://purl.org/dc/elements/1.1/"
   xmlns:cc="http://creativecommons.org/ns#"
   xmlns:rdf="http://www.w3.org/1999/02/22-rdf-syntax-ns#"
   xmlns:svg="http://www.w3.org/2000/svg"
   xmlns="http://www.w3.org/2000/svg"
   xml:space="preserve"
   viewBox="0 0 16 16"
   height="16"
   width="16"
   y="0px"
   x="0px"
   id="Capa_1"
   version="1.1"><metadata
   id="metadata49"><rdf:RDF><cc:Work
       rdf:about=""><dc:format>image/svg+xml</dc:format><dc:type
         rdf:resource="http://purl.org/dc/dcmitype/StillImage" /><dc:title></dc:title></cc:Work></rdf:RDF></metadata><defs
   id="defs47" />
<g
   style="fill:#787878;fill-opacity:1"
   transform="matrix(0.16945487,0,0,0.16945487,0.02649238,0.02655527)"
   id="g12">
	<g
   style="fill:#787878;fill-opacity:1"
   id="g10">
		<path
   style="fill:#787878;fill-opacity:1"
   id="path2"
   d="m 80.729,93.1 9.268,-9.267 c 1.181,-1.181 1.342,-2.956 0.336,-3.95 0,0 -15.527,-14.073 -30.656,-27.8 l -10.71,10.708 27.8,30.669 c 0.993,0.981 2.782,0.819 3.962,-0.36 z" />
		<path
   style="fill:#787878;fill-opacity:1"
   id="path4"
   d="m 3.877,82.404 c -0.969,0.969 -0.969,2.521 0,3.479 l 7.502,7.502 c 0.472,0.474 1.118,0.722 1.739,0.722 0.621,0 1.267,-0.236 1.739,-0.722 L 47.301,60.941 57.823,50.419 68.58,39.662 57.6,28.669 46.296,39.972 l -9.44,9.44 z" />
		<path
   style="fill:#787878;fill-opacity:1"
   id="path6"
   d="m 50.979,18.508 c 0.583,0.584 1.366,0.882 2.137,0.882 0.771,0 1.541,-0.298 2.137,-0.882 l 1.131,-1.13 3.59,3.59 -1.131,1.13 c -0.72,0.721 -1.006,1.727 -0.832,2.658 0.074,0.435 0.248,0.857 0.521,1.229 0.087,0.125 0.198,0.249 0.311,0.373 l 0.534,0.534 10.993,10.993 0.87,0.869 0.396,0.397 c 0.175,0.174 0.35,0.311 0.535,0.422 0.484,0.311 1.043,0.459 1.603,0.459 0.771,0 1.539,-0.298 2.137,-0.882 l 0.373,-0.373 c 6.186,8.348 5.788,14.135 7.056,14.135 0.583,0 1.54,-1.268 3.701,-4.1 6.271,-8.31 3.963,-16.521 1.031,-21.825 l 0.646,-0.646 c 1.18,-1.18 1.18,-3.093 0,-4.261 L 75.909,9.291 C 75.325,8.707 74.543,8.409 73.771,8.409 c -0.77,0 -1.539,0.298 -2.137,0.882 l -1.13,1.13 -3.601,-3.564 1.143,-1.143 c 1.181,-1.18 1.181,-3.093 0,-4.261 L 67.475,0.882 C 66.893,0.298 66.11,0 65.34,0 64.57,0 63.799,0.298 63.203,0.882 L 50.408,13.676 c -1.181,1.18 -1.181,3.093 0,4.261 z" />
		<path
   style="fill:#787878;fill-opacity:1"
   id="path8"
   d="m 35.502,47.426 9.217,-9.217 C 37.763,31.911 32.893,27.501 32.893,27.501 30.372,24.93 30.807,21.166 28.856,18.359 27.155,15.912 24.26,14.657 21.8,13.154 17.887,10.769 13.962,8.384 10.049,5.999 9.528,5.676 8.844,5.763 8.409,6.198 l -4.932,4.931 c -0.435,0.435 -0.521,1.118 -0.198,1.64 2.298,3.776 4.596,7.54 6.881,11.316 1.416,2.311 2.783,5.727 5.093,7.267 2.919,1.95 6.919,1.714 9.503,4.224 0.025,0.025 0.037,0.05 0.074,0.075 z" />
	</g>
</g>
<g
   transform="translate(0,-78.107002)"
   id="g14">
</g>
<g
   transform="translate(0,-78.107002)"
   id="g16">
</g>
<g
   transform="translate(0,-78.107002)"
   id="g18">
</g>
<g
   transform="translate(0,-78.107002)"
   id="g20">
</g>
<g
   transform="translate(0,-78.107002)"
   id="g22">
</g>
<g
   transform="translate(0,-78.107002)"
   id="g24">
</g>
<g
   transform="translate(0,-78.107002)"
   id="g26">
</g>
<g
   transform="translate(0,-78.107002)"
   id="g28">
</g>
<g
   transform="translate(0,-78.107002)"
   id="g30">
</g>
<g
   transform="translate(0,-78.107002)"
   id="g32">
</g>
<g
   transform="translate(0,-78.107002)"
   id="g34">
</g>
<g
   transform="translate(0,-78.107002)"
   id="g36">
</g>
<g
   transform="translate(0,-78.107002)"
   id="g38">
</g>
<g
   transform="translate(0,-78.107002)"
   id="g40">
</g>
<g
   transform="translate(0,-78.107002)"
   id="g42">
</g>
</svg>